<?xml version="1.0" encoding="UTF-8" standalone="no"?>
<!-- Created with Inkscape (http://www.inkscape.org/) -->

<svg
   height="100mm"
   viewBox="0 0 205.40369 156.98714"
   version="1.1"
   id="svg1"
   xmlns="http://www.w3.org/2000/svg"
   xmlns:svg="http://www.w3.org/2000/svg">
  <defs
     id="defs1">
    <clipPath
       clipPathUnits="userSpaceOnUse"
       id="clipPath664">
      <path
         d="M 0,1439.68 V 0 h 1145.84 v 1439.68 z"
         transform="translate(0,-2.7777778e-5)"
         id="path664" />
    </clipPath>
    <clipPath
       clipPathUnits="userSpaceOnUse"
       id="clipPath665">
      <path
         d="M 0,1439.68 V 0 h 1145.84 v 1439.68 z"
         transform="translate(0,-2.7777778e-5)"
         id="path665" />
    </clipPath>
    <clipPath
       clipPathUnits="userSpaceOnUse"
       id="clipPath666">
      <path
         d="M 0,1439.68 V 0 h 1145.84 v 1439.68 z"
         transform="translate(0,-2.7777778e-5)"
         id="path666" />
    </clipPath>
    <clipPath
       clipPathUnits="userSpaceOnUse"
       id="clipPath667">
      <path
         d="M 0,1439.68 V 0 h 1145.84 v 1439.68 z"
         transform="translate(0,-2.7777778e-5)"
         id="path667" />
    </clipPath>
    <clipPath
       clipPathUnits="userSpaceOnUse"
       id="clipPath668">
      <path
         d="M 0,1439.68 V 0 h 1145.84 v 1439.68 z"
         transform="translate(0,-2.7777778e-5)"
         id="path668" />
    </clipPath>
    <clipPath
       clipPathUnits="userSpaceOnUse"
       id="clipPath669">
      <path
         d="M 0,1439.68 V 0 h 1145.84 v 1439.68 z"
         transform="translate(0,-2.7777778e-5)"
         id="path669" />
    </clipPath>
    <clipPath
       clipPathUnits="userSpaceOnUse"
       id="clipPath670">
      <path
         d="M 0,1439.68 V 0 h 1145.84 v 1439.68 z"
         transform="translate(0,-2.7777778e-5)"
         id="path670" />
    </clipPath>
    <clipPath
       clipPathUnits="userSpaceOnUse"
       id="clipPath671">
      <path
         d="M 0,1439.68 V 0 h 1145.84 v 1439.68 z"
         transform="translate(0,-2.7777778e-5)"
         id="path671" />
    </clipPath>
    <clipPath
       clipPathUnits="userSpaceOnUse"
       id="clipPath672">
      <path
         d="M 0,1439.68 V 0 h 1145.84 v 1439.68 z"
         transform="matrix(0.1,0,0,-0.1,-10.9035,132.25)"
         id="path672" />
    </clipPath>
  </defs>
  <g
     id="layer1"
     transform="translate(-2.2186738,-78.749992)">
    <g
       id="g681"
       transform="matrix(0.77494638,0,0,0.77494638,-2867.8224,24.388224)">
      <path
         d="M 145.453,148.133 V 724.457 L 712.094,1144.8 h 288.326"
         style="fill:none;stroke:#221f1f;stroke-width:10;stroke-linecap:butt;stroke-linejoin:miter;stroke-miterlimit:4;stroke-dasharray:none;stroke-opacity:1"
         transform="matrix(0.12,0,0,-0.12,3767.622,259.65493)"
         clip-path="url(#clipPath664)"
         id="path673" />
      <path
         d="M 1000.42,1302.5 V 148.133"
         style="fill:none;stroke:#221f1f;stroke-width:10;stroke-linecap:butt;stroke-linejoin:miter;stroke-miterlimit:4;stroke-dasharray:none;stroke-opacity:1"
         transform="matrix(0.12,0,0,-0.12,3767.622,259.65493)"
         clip-path="url(#clipPath665)"
         id="path674" />
      <path
         d="M 144.82,1302.5 V 1144.8 H 432.082 L 1000.42,438.16"
         style="fill:none;stroke:#ffffff;stroke-width:30;stroke-linecap:butt;stroke-linejoin:miter;stroke-miterlimit:4;stroke-dasharray:none;stroke-opacity:1"
         transform="matrix(0.12,0,0,-0.12,3767.622,259.65493)"
         clip-path="url(#clipPath666)"
         id="path675" />
      <path
         d="M 144.82,1302.5 V 1144.8 H 432.082 L 1000.42,438.16"
         style="fill:none;stroke:#221f1f;stroke-width:10;stroke-linecap:butt;stroke-linejoin:miter;stroke-miterlimit:4;stroke-dasharray:none;stroke-opacity:1"
         transform="matrix(0.12,0,0,-0.12,3767.622,259.65493)"
         clip-path="url(#clipPath667)"
         id="path676" />
      <path
         d="M 3.75,298.133 H 287.082 V 581.465 H 3.75 Z"
         style="fill:#dbdcdd;fill-opacity:1;fill-rule:nonzero;stroke:#221f1f;stroke-width:7.5;stroke-linecap:butt;stroke-linejoin:miter;stroke-miterlimit:4;stroke-dasharray:none;stroke-opacity:1"
         transform="matrix(0.12,0,0,-0.12,3767.622,259.65493)"
         clip-path="url(#clipPath668)"
         id="path677" />
      <path
         d="m 858.754,723.133 h 283.336 v 283.336 H 858.754 Z"
         style="fill:#c5c7c9;fill-opacity:1;fill-rule:nonzero;stroke:#221f1f;stroke-width:7.5;stroke-linecap:butt;stroke-linejoin:miter;stroke-miterlimit:4;stroke-dasharray:none;stroke-opacity:1"
         transform="matrix(0.12,0,0,-0.12,3767.622,259.65493)"
         clip-path="url(#clipPath669)"
         id="path678" />
      <path
         d="m 1059.99,438.16 c 0,-32.898 -26.68,-59.57 -59.57,-59.57 -32.916,0 -59.576,26.672 -59.576,59.57 0,32.902 26.66,59.574 59.576,59.574 32.89,0 59.57,-26.672 59.57,-59.574"
         style="fill:#ffffff;fill-opacity:1;fill-rule:nonzero;stroke:none"
         transform="matrix(0.12,0,0,-0.12,3767.622,259.65493)"
         clip-path="url(#clipPath670)"
         id="path679" />
      <path
         d="m 1059.99,438.16 c 0,-32.898 -26.68,-59.57 -59.57,-59.57 -32.916,0 -59.576,26.672 -59.576,59.57 0,32.902 26.66,59.574 59.576,59.574 32.89,0 59.57,-26.672 59.57,-59.574 z"
         style="fill:none;stroke:#221f1f;stroke-width:7.5;stroke-linecap:butt;stroke-linejoin:miter;stroke-miterlimit:4;stroke-dasharray:none;stroke-opacity:1"
         transform="matrix(0.12,0,0,-0.12,3767.622,259.65493)"
         clip-path="url(#clipPath671)"
         id="path680" />
      <path
         d="M 0.80674479,-0.00150694 H 5.8458073 V -1.5379653 H 2.6296615 V -8.0874444 H 0.80674479 Z M 0.03851562,128.33834 H 5.0775781 v -1.53646 H 1.8614323 V 120.2524 H 0.03851562 Z m 6.35742188,-8.20313 c -0.1692708,1.05469 -0.4817708,2.21354 -0.8463542,3.24219 l 1.1067709,-0.10417 c 0.546875,-0.89843 1.0677083,-2.08333 1.4322916,-3.24218 z M -2.5135677,91.323363 c 0.4036458,0.0651 1.0807292,0.117187 1.97916666,0.117187 1.61458334,0 2.59114584,-0.260416 3.17708334,-0.729166 0.5078125,-0.390625 0.8463542,-0.963542 0.8463542,-1.71875 0,-1.041667 -0.6901042,-1.744792 -1.6145834,-1.992188 v -0.02604 c 0.8984375,-0.338542 1.328125,-1.002605 1.328125,-1.70573 0,-0.755208 -0.4036458,-1.302083 -0.9635416,-1.601562 -0.5859375,-0.351563 -1.27604171,-0.455729 -2.39583338,-0.455729 -0.92447912,0 -1.87500002,0.07813 -2.35677082,0.182291 z m 1.80989582,-6.71875 c 0.14322917,-0.03906 0.37760417,-0.0651 0.78125,-0.0651 0.83333334,0 1.30208338,0.325521 1.30208338,0.9375 0,0.598958 -0.50781254,1.002604 -1.48437504,1.002604 h -0.59895834 z m 0,3.177083 h 0.625 c 0.91145834,0 1.64062498,0.325521 1.64062498,1.145834 0,0.846354 -0.72916664,1.171875 -1.562499975,1.171875 -0.312500005,0 -0.520833335,0 -0.703125005,-0.03906 z M 7.701276,84.832477 H 5.8783594 v 8.528646 H 7.701276 v -1.822916 l 0.4557292,-0.585938 1.4322917,2.408854 H 11.841901 L 9.4330469,89.87154 11.542422,87.488727 H 9.341901 L 8.1439844,89.272582 C 8.0007552,89.480915 7.857526,89.728311 7.7273177,89.975707 H 7.701276 Z m 76.943359,43.919273 h 1.809896 v -3.17709 h 0.546875 c 0.755209,0.013 1.09375,0.27344 1.328125,1.28907 0.221354,1.0026 0.429688,1.65364 0.546875,1.88802 h 1.875 c -0.15625,-0.3125 -0.390625,-1.36719 -0.651041,-2.29167 -0.195313,-0.74219 -0.507813,-1.27604 -1.08073,-1.49739 v -0.0391 c 0.703125,-0.24739 1.432292,-0.96354 1.432292,-1.97916 0,-0.74219 -0.260417,-1.31511 -0.755208,-1.69271 -0.572917,-0.46875 -1.419271,-0.65104 -2.617188,-0.65104 -0.989583,0 -1.848958,0.0651 -2.434896,0.18229 z m 1.809896,-6.71875 c 0.130209,-0.0391 0.390625,-0.0651 0.833334,-0.0651 0.833333,0 1.341145,0.39063 1.341145,1.1198 0,0.70312 -0.546875,1.15885 -1.458333,1.15885 h -0.716146 z m 6.940104,-1.48438 c -0.16927,1.05469 -0.48177,2.21354 -0.846354,3.24219 l 1.106771,-0.10417 c 0.546875,-0.89843 1.067708,-2.08333 1.432292,-3.24218 z M 83.599714,48.686644 h 1.822916 v -3.255208 h 2.903646 V 43.947061 H 85.42263 v -1.848959 h 3.111979 v -1.497395 h -4.934895 z m 9.121093,-6.526693 h -1.822916 v 8.528646 h 1.822916 v -1.822916 l 0.455729,-0.585938 1.432292,2.408854 h 2.252604 l -2.408854,-3.489583 2.109375,-2.382813 h -2.200521 l -1.197916,1.783855 c -0.14323,0.208333 -0.286459,0.455729 -0.416667,0.703125 h -0.02604 z M 85.780703,-0.00150694 h 1.809896 V -3.1785903 h 0.546875 c 0.755208,0.013021 1.09375,0.2734375 1.328125,1.2890625 0.221354,1.00260419 0.429687,1.65364586 0.546875,1.88802086 h 1.875 c -0.15625,-0.3125 -0.390625,-1.36718746 -0.651042,-2.29166666 -0.195312,-0.7421875 -0.507812,-1.2760417 -1.080729,-1.4973958 v -0.039063 c 0.703125,-0.2473959 1.432292,-0.9635417 1.432292,-1.9791667 0,-0.7421875 -0.260417,-1.3151042 -0.755209,-1.6927083 -0.572916,-0.46875 -1.41927,-0.6510417 -2.617187,-0.6510417 -0.989583,0 -1.848958,0.065104 -2.434896,0.1822917 z m 1.809896,-6.71874996 c 0.130208,-0.039063 0.390625,-0.065104 0.833333,-0.065104 0.833334,0 1.341146,0.390625 1.341146,1.1197917 0,0.703125 -0.546875,1.1588541 -1.458333,1.1588541 h -0.716146 z m 0.963542,91.9954429 v 2.617187 H 86.04112 v 1.119792 h 2.513021 v 2.65625 h 1.171875 v -2.65625 h 2.51302 v -1.119792 h -2.51302 v -2.617187 z m 0,0"
         style="fill:#000000;fill-opacity:1;fill-rule:nonzero;stroke:none"
         aria-label="L&#10;L’&#10;B&#10;k&#10;R’ &#10;F&#10;k&#10;R&#10;+"
         transform="matrix(1.2,0,0,1.2,3780.7062,100.95493)"
         clip-path="url(#clipPath672)"
         id="path681" />
    </g>
    <g
       id="g637"
       aria-label="L=R&#10;0&#10; F&#10;k&#10;(B&#10;−1&#10;k&#10;(L&#10;0&#10;))R=B&#10;−1&#10;k&#10;(L&#10;0&#10;)"
       transform="matrix(1.2798206,0,0,1.2798206,1.7077031,88.849522)">
      <path
         id="path638"
         d="m 3.4109703,-5.41285 c 0.082031,-0.3398437 0.1171875,-0.4335937 0.9492188,-0.4335937 0.2460937,0 0.328125,0 0.328125,-0.1640625 0,-0.1054688 -0.1171875,-0.1054688 -0.140625,-0.1054688 -0.2109375,0 -0.4453125,0.011719 -0.65625,0.011719 -0.2109375,0 -0.4335938,0.011719 -0.6445313,0.011719 -0.2109375,0 -0.421875,0 -0.6210937,-0.011719 -0.1640625,-0.011719 -0.4335938,-0.011719 -0.5859375,-0.011719 -0.058594,0 -0.1875,0 -0.1875,0.1523438 0,0.1171875 0.082031,0.1171875 0.2695312,0.1171875 0.035156,0 0.1992188,0 0.3398438,0.023437 0.1523437,0.011719 0.2226562,0.035156 0.2226562,0.1289062 0,0.046875 -0.011719,0.082031 -0.035156,0.1875 l -1.21875,4.828125 c -0.070312,0.31640625 -0.09375,0.3984375 -0.76171879,0.3984375 -0.17578125,0 -0.26953125,0 -0.26953125,0.1640625 0,0.1171875 0.0820313,0.1171875 0.24609375,0.1171875 H 4.8758141 c 0.2226562,0 0.2226562,-0.01171875 0.2929687,-0.19921875 0.09375,-0.22265625 0.7382813,-1.92187495 0.7382813,-1.99218745 0,-0.082031 -0.058594,-0.1171875 -0.1289063,-0.1171875 -0.082031,0 -0.09375,0.035156 -0.1640625,0.2109375 -0.3046875,0.796875 -0.703125,1.8164062 -2.2734375,1.8164062 H 2.4617516 c -0.1289063,0 -0.1523438,0 -0.1875,0 -0.082031,-0.0117188 -0.1171875,-0.0234375 -0.1171875,-0.0820313 0,-0.0351563 0,-0.046875 0.046875,-0.2109375 z m 0,0"
         style="fill:#000000;fill-opacity:1;fill-rule:nonzero;stroke:none" />
      <path
         id="path639"
         d="m 15.182455,-2.9636312 c 0.117187,0 0.292968,0 0.292968,-0.1875 0,-0.1992188 -0.199218,-0.1992188 -0.328125,-0.1992188 H 9.6746422 c -0.140625,0 -0.328125,0 -0.328125,0.1992188 0,0.1875 0.1757812,0.1875 0.2929687,0.1875 z m -0.03516,1.828125 c 0.128907,0 0.328125,0 0.328125,-0.1992188 0,-0.1875 -0.175781,-0.1875 -0.292968,-0.1875 H 9.6394859 c -0.1171875,0 -0.2929687,0 -0.2929687,0.1875 0,0.1992188 0.1875,0.1992188 0.328125,0.1992188 z m 0,0"
         style="fill:#000000;fill-opacity:1;fill-rule:nonzero;stroke:none" />
      <path
         id="path640"
         d="m 21.967611,-5.4948812 c 0.05859,-0.2226563 0.08203,-0.3164063 0.246094,-0.3398438 0.08203,-0.011719 0.375,-0.011719 0.5625,-0.011719 0.714843,0 1.699218,0 1.699218,0.9023437 0,0.3398438 -0.140625,1.0078125 -0.644531,1.3945313 -0.222656,0.140625 -0.667969,0.375 -1.394531,0.375 h -1.042969 z m 1.394531,2.4609375 c 1.21875,-0.3164063 1.96875,-0.9960938 1.96875,-1.734375 0,-0.7851563 -0.84375,-1.3476563 -2.039062,-1.3476563 h -2.601563 c -0.164062,0 -0.269531,0 -0.269531,0.1523438 0,0.1171875 0.08203,0.1171875 0.269531,0.1171875 0.03516,0 0.199219,0 0.339844,0.023437 0.152344,0.011719 0.210937,0.035156 0.210937,0.1289062 0,0.046875 0,0.082031 -0.03516,0.1875 l -1.207031,4.828125 c -0.08203,0.31640625 -0.09375,0.3984375 -0.773438,0.3984375 -0.164062,0 -0.269531,0 -0.269531,0.1640625 0,0.09375 0.08203,0.1171875 0.140625,0.1171875 0.140625,0 0.410156,-0.01171875 0.5625,-0.0234375 0.1875,0 0.210938,0 0.5625,0 0.28125,0 0.304688,0 0.5625,0 0.1875,0.01171875 0.410156,0.0234375 0.574219,0.0234375 0.07031,0 0.1875,0 0.1875,-0.1640625 0,-0.1171875 -0.09375,-0.1171875 -0.28125,-0.1171875 -0.03516,0 -0.199219,0 -0.339844,-0.0117188 -0.199219,-0.0351563 -0.210937,-0.0703125 -0.210937,-0.140625 0,-0.0351563 0,-0.046875 0.04687,-0.2109375 l 0.574218,-2.3085937 h 1.101563 c 0.808594,0 1.019531,0.46875 1.019531,0.8085938 0,0.070312 0,0.1289062 -0.05859,0.328125 -0.210937,0.8203124 -0.210937,0.90234365 -0.210937,1.0312499 0,0.80859375 0.761719,0.984375 1.21875,0.984375 0.773437,0 1.101562,-0.90234375 1.101562,-1.0546875 0,-0.0585938 -0.05859,-0.10546875 -0.117187,-0.10546875 -0.09375,0 -0.105469,0.046875 -0.140625,0.15234375 -0.152344,0.46875 -0.492188,0.78515625 -0.820313,0.78515625 -0.339843,0 -0.363281,-0.26953125 -0.363281,-0.52734375 0,-0.234375 0.07031,-0.7499999 0.08203,-0.8085937 0.01172,-0.1523437 0.05859,-0.5039062 0.05859,-0.6445312 0,-0.5039063 -0.328125,-0.8554688 -0.84375,-1.03125 z m 0,0"
         style="fill:#000000;fill-opacity:1;fill-rule:nonzero;stroke:none" />
      <path
         id="path641"
         d="m 27.469564,-6.6110922 c 0.03516,-0.09375 0.05859,-0.1289062 0.05859,-0.1992187 0,-0.1992188 -0.1875,-0.3398438 -0.363281,-0.3398438 -0.199219,0 -0.292969,0.140625 -0.328125,0.2578125 l -0.84375,2.6015625 c -0.03516,0.082031 -0.03516,0.09375 -0.03516,0.09375 0,0.09375 0.1875,0.1523438 0.246094,0.1523438 0.05859,0 0.08203,-0.046875 0.105469,-0.09375 z m 0,0"
         style="fill:#000000;fill-opacity:1;fill-rule:nonzero;stroke:none" />
      <path
         id="path642"
         d="m 36.970541,-2.2370687 c 0,-1.7109375 -1.382813,-3.0820313 -3.070313,-3.0820313 -1.6875,0 -3.058594,1.3945313 -3.058594,3.0703125 0,1.7109375 1.371094,3.0703125 3.058594,3.0703125 1.699219,0 3.070313,-1.3828125 3.070313,-3.0585937 z m -5.882813,-0.140625 c 0.09375,-1.546875 1.359375,-2.6835938 2.8125,-2.6835938 1.464844,0 2.730469,1.1367188 2.8125,2.6835938 z m 5.625,0.2578125 c -0.08203,1.59374995 -1.382812,2.69531245 -2.8125,2.69531245 -1.429687,0 -2.71875,-1.1015625 -2.8125,-2.69531245 z m 0,0"
         style="fill:#000000;fill-opacity:1;fill-rule:nonzero;stroke:none" />
      <path
         id="path643"
         d="m 42.331869,-2.9167562 h 0.878906 c 0.632813,0 0.761719,0.1171875 0.761719,0.3984375 0,0.023437 -0.01172,0.1875 -0.05859,0.3984375 -0.04687,0.1171875 -0.04687,0.1171875 -0.04687,0.140625 0,0.035156 0.03516,0.1171875 0.128906,0.1171875 0.105469,0 0.105469,-0.046875 0.140625,-0.1875 l 0.503907,-1.9335938 c 0,-0.035156 0.02344,-0.09375 0.02344,-0.140625 0,-0.046875 -0.03516,-0.1171875 -0.128906,-0.1171875 -0.09375,0 -0.117188,0.070312 -0.152344,0.2226563 -0.175781,0.6914062 -0.433594,0.8320312 -1.160156,0.8320312 h -0.820313 c 0.117188,-0.4921875 0.574219,-2.3320312 0.609375,-2.4492187 0.05859,-0.1757813 0.164063,-0.1757813 0.433594,-0.1757813 h 1.230469 c 1.136719,0 1.335937,0.2929688 1.335937,0.984375 0,0.3046875 -0.04687,0.5390625 -0.04687,0.609375 0,0.082031 0.04687,0.140625 0.117188,0.140625 0.117187,0 0.117187,-0.058594 0.140625,-0.2226562 l 0.1875,-1.6640625 c 0,-0.1289063 -0.09375,-0.1289063 -0.257813,-0.1289063 H 41.6639 c -0.1875,0 -0.269531,0 -0.269531,0.1640625 0,0.1171875 0.08203,0.1171875 0.269531,0.1171875 0.03516,0 0.199219,0 0.339844,0.011719 0.199219,0.023437 0.210937,0.058594 0.210937,0.140625 0,0.035156 0,0.046875 -0.04687,0.2109375 l -1.195312,4.7695312 c -0.07031,0.31640625 -0.09375,0.3984375 -0.761719,0.3984375 -0.175781,0 -0.269531,0 -0.269531,0.1640625 0,0.05859375 0.02344,0.1171875 0.128906,0.1171875 0.105469,0 0.527344,-0.01171875 0.609375,-0.0234375 0.07031,0 0.386719,0 0.585938,0 0.164062,0 0.421875,0 0.632812,0 0.222656,0 0.46875,0.0234375 0.679688,0.0234375 0.07031,0 0.1875,0 0.1875,-0.1640625 0,-0.1171875 -0.08203,-0.1171875 -0.269532,-0.1171875 -0.02344,0 -0.257812,0 -0.46875,-0.0117188 -0.28125,-0.0351563 -0.292968,-0.0703125 -0.292968,-0.17578125 0,-0.0117188 0,-0.0703125 0.03516,-0.19921875 z m 0,0"
         style="fill:#000000;fill-opacity:1;fill-rule:nonzero;stroke:none" />
      <path
         id="path644"
         d="m 47.406088,-2.9108969 c 0.01172,-0.023437 0.02344,-0.058594 0.02344,-0.082031 0,-0.09375 -0.117187,-0.09375 -0.1875,-0.082031 l -0.679687,0.046875 c -0.09375,0.011719 -0.175782,0.011719 -0.175782,0.1523438 0,0.09375 0.08203,0.09375 0.175782,0.09375 0.175781,0 0.210937,0.023437 0.292968,0.046875 0,0.070312 0,0.082031 -0.02344,0.1757812 l -0.84375,3.33984378 c -0.02344,0.09375 -0.02344,0.12890625 -0.02344,0.140625 0,0.15234372 0.128907,0.19921872 0.210938,0.19921872 0.05859,0 0.175781,-0.023437 0.246094,-0.14062497 0.04687,-0.0703125 0.28125,-1.06640625 0.328125,-1.25390625 0.398437,0.0234375 0.832031,0.1171875 0.832031,0.48046875 0,0.0234375 0,0.0585937 -0.02344,0.1171875 -0.01172,0.09375 -0.01172,0.12890625 -0.01172,0.17578125 0,0.3984375 0.328125,0.62109372 0.667968,0.62109372 0.585938,0 0.785157,-0.86718747 0.785157,-0.91406247 0,-0.0117188 0,-0.09375 -0.105469,-0.09375 -0.08203,0 -0.09375,0.0351563 -0.128906,0.140625 -0.05859,0.22265625 -0.222657,0.66796875 -0.527344,0.66796875 -0.234375,0 -0.234375,-0.2578125 -0.234375,-0.31640625 0,-0.09375 0,-0.10546875 0.03516,-0.22265625 0,-0.0117188 0.02344,-0.12890625 0.02344,-0.19921875 0,-0.45703125 -0.515625,-0.59765625 -0.972657,-0.64453125 0.140625,-0.09375 0.269532,-0.1875 0.503907,-0.3984375 0.304687,-0.25781248 0.609375,-0.51562498 0.9375,-0.51562498 0.08203,0 0.152343,0.011719 0.210937,0.082031 -0.210937,0.035156 -0.304687,0.1992188 -0.304687,0.32812503 0,0.1875 0.152343,0.234375 0.234375,0.234375 0.140625,0 0.351562,-0.09375 0.351562,-0.39843753 0,-0.2578125 -0.1875,-0.4453125 -0.480469,-0.4453125 -0.375,0 -0.738281,0.2929688 -1.007812,0.5273438 -0.304688,0.26953123 -0.492188,0.42187498 -0.714844,0.50390623 z m 0,0"
         style="fill:#000000;fill-opacity:1;fill-rule:nonzero;stroke:none" />
      <path
         id="path645"
         d="m 53.057455,2.134025 c 0,-0.046875 -0.02344,-0.070312 -0.08203,-0.1289062 -1.160156,-1.0664063 -1.511718,-2.67187505 -1.511718,-4.2421875 0,-1.3945313 0.269531,-3.0820313 1.535156,-4.2773438 0.03516,-0.035156 0.05859,-0.070312 0.05859,-0.1054687 0,-0.070312 -0.04687,-0.1054688 -0.105469,-0.1054688 -0.105469,0 -0.914063,0.6445313 -1.40625,1.6289063 -0.421875,0.8554687 -0.644531,1.78125 -0.644531,2.8476562 0,0.6445313 0.08203,1.6640625 0.574218,2.73046875 0.527344,1.10156255 1.371094,1.74609375 1.476563,1.74609375 0.05859,0 0.105469,-0.035156 0.105469,-0.09375 z m 0,0"
         style="fill:#000000;fill-opacity:1;fill-rule:nonzero;stroke:none" />
      <path
         id="path646"
         d="m 55.046713,-0.678475 c -0.08203,0.31640625 -0.105469,0.3984375 -0.773438,0.3984375 -0.175781,0 -0.269531,0 -0.269531,0.1640625 0,0.1171875 0.09375,0.1171875 0.246094,0.1171875 h 3.269531 c 1.453125,0 2.519531,-1.0546875 2.519531,-1.921875 0,-0.6445312 -0.527344,-1.1835937 -1.417969,-1.2773437 1.019532,-0.1992188 1.886719,-0.8789063 1.886719,-1.6757813 0,-0.703125 -0.644531,-1.2421875 -1.710937,-1.2421875 h -3.058594 c -0.164063,0 -0.269531,0 -0.269531,0.1523438 0,0.1171875 0.08203,0.1171875 0.269531,0.1171875 0.03516,0 0.1875,0 0.339844,0.023437 0.152343,0.011719 0.210937,0.035156 0.210937,0.1289062 0,0.046875 -0.01172,0.082031 -0.03516,0.1875 z m 1.394531,-2.625 0.550781,-2.1914062 c 0.08203,-0.3164063 0.09375,-0.3515625 0.46875,-0.3515625 h 1.21875 c 0.925781,0 1.007813,0.7148437 1.007813,0.9375 0,0.796875 -0.832032,1.6054687 -1.851563,1.6054687 z m -0.433594,3.0234375 c -0.117187,0 -0.140625,0 -0.175781,0 -0.09375,-0.0117188 -0.117188,-0.0234375 -0.117188,-0.0820313 0,-0.0351563 0,-0.046875 0.04687,-0.2109375 L 56.38265,-3.0691 h 1.675781 c 0.5625,0 1.125,0.234375 1.125,1.0546875 0,0.890625 -0.808593,1.734375 -1.886718,1.734375 z m 0,0"
         style="fill:#000000;fill-opacity:1;fill-rule:nonzero;stroke:none" />
      <path
         id="path647"
         d="m 65.772298,-5.2546469 c 0.08203,0 0.234375,0 0.234375,-0.1523437 0,-0.1640625 -0.152343,-0.1640625 -0.234375,-0.1640625 h -3.785156 c -0.09375,0 -0.234375,0 -0.234375,0.1640625 0,0.1523437 0.140625,0.1523437 0.234375,0.1523437 z m 0,0"
         style="fill:#000000;fill-opacity:1;fill-rule:nonzero;stroke:none" />
      <path
         id="path648"
         d="m 68.904134,-7.7155844 c 0,-0.1757812 -0.02344,-0.1757812 -0.199218,-0.1757812 -0.398438,0.375 -1.007813,0.375 -1.21875,0.375 v 0.234375 c 0.152343,0 0.550781,0 0.902343,-0.1640625 v 3.0234375 c 0,0.1875 0,0.2695312 -0.609375,0.2695312 h -0.257812 v 0.234375 c 0.328125,-0.023437 0.796875,-0.023437 1.125,-0.023437 0.339844,0 0.796875,0 1.136719,0.023437 v -0.234375 h -0.257813 c -0.621094,0 -0.621094,-0.082031 -0.621094,-0.2695312 z m 0,0"
         style="fill:#000000;fill-opacity:1;fill-rule:nonzero;stroke:none" />
      <path
         id="path649"
         d="m 62.534994,-1.3962484 c 0.01172,-0.023437 0.02344,-0.058594 0.02344,-0.082031 0,-0.09375 -0.117187,-0.09375 -0.1875,-0.082031 l -0.679687,0.046875 c -0.09375,0.011719 -0.175781,0.011719 -0.175781,0.1523437 0,0.09375 0.08203,0.09375 0.175781,0.09375 0.175781,0 0.210937,0.023437 0.292969,0.046875 0,0.070312 0,0.082031 -0.02344,0.1757813 l -0.84375,3.3398437 c -0.02344,0.09375 -0.02344,0.1289063 -0.02344,0.140625 0,0.1523438 0.128906,0.1992188 0.210937,0.1992188 0.05859,0 0.175781,-0.023437 0.246094,-0.140625 0.04687,-0.070312 0.28125,-1.0664063 0.328125,-1.2539063 0.398437,0.023437 0.832031,0.1171875 0.832031,0.4804688 0,0.023437 0,0.058594 -0.02344,0.1171875 -0.01172,0.09375 -0.01172,0.1289062 -0.01172,0.1757812 0,0.3984375 0.328125,0.6210938 0.667969,0.6210938 0.585937,0 0.785156,-0.8671875 0.785156,-0.9140625 0,-0.011719 0,-0.09375 -0.105469,-0.09375 -0.08203,0 -0.09375,0.035156 -0.128906,0.140625 -0.05859,0.2226562 -0.222656,0.6679687 -0.527344,0.6679687 -0.234375,0 -0.234375,-0.2578125 -0.234375,-0.3164062 0,-0.09375 0,-0.1054688 0.03516,-0.2226563 0,-0.011719 0.02344,-0.1289062 0.02344,-0.1992187 0,-0.4570313 -0.515625,-0.5976563 -0.972656,-0.6445313 0.140625,-0.09375 0.269531,-0.18749999 0.503906,-0.39843749 0.304687,-0.2578125 0.609375,-0.515625 0.9375,-0.515625 0.08203,0 0.152344,0.0117188 0.210937,0.0820313 -0.210937,0.0351563 -0.304687,0.19921875 -0.304687,0.328125 0,0.1875 0.152344,0.234375 0.234375,0.234375 0.140625,0 0.351562,-0.09375 0.351562,-0.3984375 0,-0.2578125 -0.1875,-0.4453125 -0.480468,-0.4453125 -0.375,0 -0.738282,0.29296875 -1.007813,0.52734375 -0.304687,0.26953125 -0.492187,0.421875 -0.714844,0.50390625 z m 0,0"
         style="fill:#000000;fill-opacity:1;fill-rule:nonzero;stroke:none" />
      <path
         id="path650"
         d="m 73.966634,2.134025 c 0,-0.046875 -0.02344,-0.070312 -0.08203,-0.1289062 -1.160156,-1.0664063 -1.511719,-2.67187505 -1.511719,-4.2421875 0,-1.3945313 0.269532,-3.0820313 1.535157,-4.2773438 0.03516,-0.035156 0.05859,-0.070312 0.05859,-0.1054687 0,-0.070312 -0.04687,-0.1054688 -0.105468,-0.1054688 -0.105469,0 -0.914063,0.6445313 -1.40625,1.6289063 -0.421875,0.8554687 -0.644532,1.78125 -0.644532,2.8476562 0,0.6445313 0.08203,1.6640625 0.574219,2.73046875 0.527344,1.10156255 1.371094,1.74609375 1.476563,1.74609375 0.05859,0 0.105468,-0.035156 0.105468,-0.09375 z m 0,0"
         style="fill:#000000;fill-opacity:1;fill-rule:nonzero;stroke:none" />
      <path
         id="path651"
         d="m 77.904134,-5.41285 c 0.08203,-0.3398437 0.117188,-0.4335937 0.949219,-0.4335937 0.246094,0 0.328125,0 0.328125,-0.1640625 0,-0.1054688 -0.117187,-0.1054688 -0.140625,-0.1054688 -0.210937,0 -0.445312,0.011719 -0.65625,0.011719 -0.210937,0 -0.433594,0.011719 -0.644531,0.011719 -0.210938,0 -0.421875,0 -0.621094,-0.011719 -0.164062,-0.011719 -0.433594,-0.011719 -0.585937,-0.011719 -0.05859,0 -0.1875,0 -0.1875,0.1523438 0,0.1171875 0.08203,0.1171875 0.269531,0.1171875 0.03516,0 0.199219,0 0.339844,0.023437 0.152343,0.011719 0.222656,0.035156 0.222656,0.1289062 0,0.046875 -0.01172,0.082031 -0.03516,0.1875 l -1.21875,4.828125 c -0.07031,0.31640625 -0.09375,0.3984375 -0.761719,0.3984375 -0.175781,0 -0.269531,0 -0.269531,0.1640625 0,0.1171875 0.08203,0.1171875 0.246093,0.1171875 h 4.230469 c 0.222656,0 0.222656,-0.01171875 0.292969,-0.19921875 0.09375,-0.22265625 0.738281,-1.92187495 0.738281,-1.99218745 0,-0.082031 -0.05859,-0.1171875 -0.128906,-0.1171875 -0.08203,0 -0.09375,0.035156 -0.164063,0.2109375 -0.304687,0.796875 -0.703125,1.8164062 -2.273437,1.8164062 h -0.878906 c -0.128907,0 -0.152344,0 -0.1875,0 -0.08203,-0.0117188 -0.117188,-0.0234375 -0.117188,-0.0820313 0,-0.0351563 0,-0.046875 0.04687,-0.2109375 z m 0,0"
         style="fill:#000000;fill-opacity:1;fill-rule:nonzero;stroke:none" />
      <path
         id="path652"
         d="m 82.638509,-6.6110922 c 0.03516,-0.09375 0.05859,-0.1289062 0.05859,-0.1992187 0,-0.1992188 -0.1875,-0.3398438 -0.363281,-0.3398438 -0.199219,0 -0.292969,0.140625 -0.328125,0.2578125 l -0.84375,2.6015625 c -0.03516,0.082031 -0.03516,0.09375 -0.03516,0.09375 0,0.09375 0.1875,0.1523438 0.246093,0.1523438 0.05859,0 0.08203,-0.046875 0.105469,-0.09375 z m 0,0"
         style="fill:#000000;fill-opacity:1;fill-rule:nonzero;stroke:none" />
      <path
         id="path653"
         d="m 86.118978,-2.2487875 c 0,-0.7382812 -0.105469,-1.7226562 -0.574219,-2.71875 C 85.017416,-6.0691 84.185384,-6.72535 84.079916,-6.72535 c -0.09375,0 -0.117188,0.070312 -0.117188,0.1054688 0,0.035156 0.02344,0.070312 0.08203,0.1289062 0.527344,0.46875 1.511719,1.6875 1.511719,4.2421875 0,1.27734375 -0.234375,3.0703125 -1.535156,4.2773438 -0.02344,0.023437 -0.05859,0.058594 -0.05859,0.1054687 0,0.023437 0.02344,0.09375 0.117188,0.09375 0.105468,0 0.914062,-0.6445312 1.394531,-1.6171875 0.433594,-0.85546875 0.644531,-1.78125 0.644531,-2.859375 z m 3.588867,0 c 0,-0.7382812 -0.105468,-1.7226562 -0.574218,-2.71875 C 88.606283,-6.0691 87.774252,-6.72535 87.668783,-6.72535 c -0.09375,0 -0.117188,0.070312 -0.117188,0.1054688 0,0.035156 0.02344,0.070312 0.08203,0.1289062 0.527343,0.46875 1.511718,1.6875 1.511718,4.2421875 0,1.27734375 -0.234375,3.0703125 -1.535156,4.2773438 -0.02344,0.023437 -0.05859,0.058594 -0.05859,0.1054687 0,0.023437 0.02344,0.09375 0.117188,0.09375 0.105469,0 0.914062,-0.6445312 1.394531,-1.6171875 0.433594,-0.85546875 0.644531,-1.78125 0.644531,-2.859375 z m 0,0"
         style="fill:#000000;fill-opacity:1;fill-rule:nonzero;stroke:none" />
      <path
         id="path654"
         d="m 112.44222,-5.4948812 c 0.0586,-0.2226563 0.082,-0.3164063 0.24609,-0.3398438 0.082,-0.011719 0.375,-0.011719 0.5625,-0.011719 0.71485,0 1.69922,0 1.69922,0.9023437 0,0.3398438 -0.14062,1.0078125 -0.64453,1.3945313 -0.22265,0.140625 -0.66797,0.375 -1.39453,0.375 H 111.868 Z m 1.39453,2.4609375 c 1.21875,-0.3164063 1.96875,-0.9960938 1.96875,-1.734375 0,-0.7851563 -0.84375,-1.3476563 -2.03906,-1.3476563 h -2.60156 c -0.16407,0 -0.26953,0 -0.26953,0.1523438 0,0.1171875 0.082,0.1171875 0.26953,0.1171875 0.0352,0 0.19922,0 0.33984,0.023437 0.15234,0.011719 0.21094,0.035156 0.21094,0.1289062 0,0.046875 0,0.082031 -0.0352,0.1875 l -1.20703,4.828125 c -0.082,0.31640625 -0.0937,0.3984375 -0.77344,0.3984375 -0.16406,0 -0.26953,0 -0.26953,0.1640625 0,0.09375 0.082,0.1171875 0.14063,0.1171875 0.14062,0 0.41015,-0.01171875 0.5625,-0.0234375 0.1875,0 0.21093,0 0.5625,0 0.28125,0 0.30468,0 0.5625,0 0.1875,0.01171875 0.41015,0.0234375 0.57422,0.0234375 0.0703,0 0.1875,0 0.1875,-0.1640625 0,-0.1171875 -0.0937,-0.1171875 -0.28125,-0.1171875 -0.0352,0 -0.19922,0 -0.33985,-0.0117188 -0.19922,-0.0351563 -0.21094,-0.0703125 -0.21094,-0.140625 0,-0.0351563 0,-0.046875 0.0469,-0.2109375 l 0.57422,-2.3085937 h 1.10156 c 0.80859,0 1.01953,0.46875 1.01953,0.8085938 0,0.070312 0,0.1289062 -0.0586,0.328125 -0.21094,0.8203124 -0.21094,0.90234365 -0.21094,1.0312499 0,0.80859375 0.76172,0.984375 1.21875,0.984375 0.77344,0 1.10156,-0.90234375 1.10156,-1.0546875 0,-0.0585938 -0.0586,-0.10546875 -0.11718,-0.10546875 -0.0937,0 -0.10547,0.046875 -0.14063,0.15234375 -0.15234,0.46875 -0.49219,0.78515625 -0.82031,0.78515625 -0.33985,0 -0.36328,-0.26953125 -0.36328,-0.52734375 0,-0.234375 0.0703,-0.7499999 0.082,-0.8085937 0.0117,-0.1523437 0.0586,-0.5039062 0.0586,-0.6445312 0,-0.5039063 -0.32812,-0.8554688 -0.84375,-1.03125 z m 0,0"
         style="fill:#000000;fill-opacity:1;fill-rule:nonzero;stroke:none" />
      <path
         id="path655"
         d="m 124.97835,-2.9636312 c 0.11719,0 0.29297,0 0.29297,-0.1875 0,-0.1992188 -0.19922,-0.1992188 -0.32812,-0.1992188 h -5.47266 c -0.14062,0 -0.32812,0 -0.32812,0.1992188 0,0.1875 0.17578,0.1875 0.29296,0.1875 z m -0.0352,1.828125 c 0.1289,0 0.32812,0 0.32812,-0.1992188 0,-0.1875 -0.17578,-0.1875 -0.29297,-0.1875 h -5.54297 c -0.11718,0 -0.29296,0 -0.29296,0.1875 0,0.1992188 0.1875,0.1992188 0.32812,0.1992188 z m 0,0"
         style="fill:#000000;fill-opacity:1;fill-rule:nonzero;stroke:none" />
      <path
         id="path656"
         d="m 129.82113,-0.678475 c -0.082,0.31640625 -0.10547,0.3984375 -0.77344,0.3984375 -0.17578,0 -0.26953,0 -0.26953,0.1640625 0,0.1171875 0.0937,0.1171875 0.24609,0.1171875 h 3.26953 c 1.45313,0 2.51953,-1.0546875 2.51953,-1.921875 0,-0.6445312 -0.52734,-1.1835937 -1.41796,-1.2773437 1.01953,-0.1992188 1.88671,-0.8789063 1.88671,-1.6757813 0,-0.703125 -0.64453,-1.2421875 -1.71093,-1.2421875 h -3.0586 c -0.16406,0 -0.26953,0 -0.26953,0.1523438 0,0.1171875 0.082,0.1171875 0.26953,0.1171875 0.0352,0 0.1875,0 0.33985,0.023437 0.15234,0.011719 0.21093,0.035156 0.21093,0.1289062 0,0.046875 -0.0117,0.082031 -0.0351,0.1875 z m 1.39453,-2.625 0.55078,-2.1914062 c 0.082,-0.3164063 0.0937,-0.3515625 0.46875,-0.3515625 h 1.21875 c 0.92578,0 1.00781,0.7148437 1.00781,0.9375 0,0.796875 -0.83203,1.6054687 -1.85156,1.6054687 z m -0.4336,3.0234375 c -0.11718,0 -0.14062,0 -0.17578,0 -0.0937,-0.0117188 -0.11718,-0.0234375 -0.11718,-0.0820313 0,-0.0351563 0,-0.046875 0.0469,-0.2109375 L 131.15706,-3.0691 h 1.67579 c 0.5625,0 1.125,0.234375 1.125,1.0546875 0,0.890625 -0.8086,1.734375 -1.88672,1.734375 z m 0,0"
         style="fill:#000000;fill-opacity:1;fill-rule:nonzero;stroke:none" />
      <path
         id="path657"
         d="m 140.54378,-5.2546469 c 0.082,0 0.23438,0 0.23438,-0.1523437 0,-0.1640625 -0.15235,-0.1640625 -0.23438,-0.1640625 h -3.78515 c -0.0937,0 -0.23438,0 -0.23438,0.1640625 0,0.1523437 0.14063,0.1523437 0.23438,0.1523437 z m 0,0"
         style="fill:#000000;fill-opacity:1;fill-rule:nonzero;stroke:none" />
      <path
         id="path658"
         d="m 143.67562,-7.7155844 c 0,-0.1757812 -0.0234,-0.1757812 -0.19922,-0.1757812 -0.39844,0.375 -1.00781,0.375 -1.21875,0.375 v 0.234375 c 0.15234,0 0.55078,0 0.90234,-0.1640625 v 3.0234375 c 0,0.1875 0,0.2695312 -0.60937,0.2695312 h -0.25781 v 0.234375 c 0.32812,-0.023437 0.79687,-0.023437 1.125,-0.023437 0.33984,0 0.79687,0 1.13671,0.023437 v -0.234375 h -0.25781 c -0.62109,0 -0.62109,-0.082031 -0.62109,-0.2695312 z m 0,0"
         style="fill:#000000;fill-opacity:1;fill-rule:nonzero;stroke:none" />
      <path
         id="path659"
         d="m 137.30941,-1.3962484 c 0.0117,-0.023437 0.0234,-0.058594 0.0234,-0.082031 0,-0.09375 -0.11719,-0.09375 -0.1875,-0.082031 l -0.67969,0.046875 c -0.0937,0.011719 -0.17578,0.011719 -0.17578,0.1523437 0,0.09375 0.082,0.09375 0.17578,0.09375 0.17578,0 0.21094,0.023437 0.29297,0.046875 0,0.070312 0,0.082031 -0.0234,0.1757813 l -0.84375,3.3398437 c -0.0234,0.09375 -0.0234,0.1289063 -0.0234,0.140625 0,0.1523438 0.12891,0.1992188 0.21094,0.1992188 0.0586,0 0.17578,-0.023437 0.24609,-0.140625 0.0469,-0.070312 0.28125,-1.0664063 0.32813,-1.2539063 0.39844,0.023437 0.83203,0.1171875 0.83203,0.4804688 0,0.023437 0,0.058594 -0.0234,0.1171875 -0.0117,0.09375 -0.0117,0.1289062 -0.0117,0.1757812 0,0.3984375 0.32813,0.6210938 0.66797,0.6210938 0.58594,0 0.78516,-0.8671875 0.78516,-0.9140625 0,-0.011719 0,-0.09375 -0.10547,-0.09375 -0.082,0 -0.0937,0.035156 -0.12891,0.140625 -0.0586,0.2226562 -0.22265,0.6679687 -0.52734,0.6679687 -0.23438,0 -0.23438,-0.2578125 -0.23438,-0.3164062 0,-0.09375 0,-0.1054688 0.0352,-0.2226563 0,-0.011719 0.0234,-0.1289062 0.0234,-0.1992187 0,-0.4570313 -0.51563,-0.5976563 -0.97266,-0.6445313 0.14063,-0.09375 0.26953,-0.18749999 0.50391,-0.39843749 0.30469,-0.2578125 0.60937,-0.515625 0.9375,-0.515625 0.082,0 0.15234,0.0117188 0.21094,0.0820313 -0.21094,0.0351563 -0.30469,0.19921875 -0.30469,0.328125 0,0.1875 0.15234,0.234375 0.23437,0.234375 0.14063,0 0.35157,-0.09375 0.35157,-0.3984375 0,-0.2578125 -0.1875,-0.4453125 -0.48047,-0.4453125 -0.375,0 -0.73828,0.29296875 -1.00782,0.52734375 -0.30468,0.26953125 -0.49218,0.421875 -0.71484,0.50390625 z m 0,0"
         style="fill:#000000;fill-opacity:1;fill-rule:nonzero;stroke:none" />
      <path
         id="path660"
         d="m 148.74105,2.134025 c 0,-0.046875 -0.0234,-0.070312 -0.082,-0.1289062 -1.16016,-1.0664063 -1.51172,-2.67187505 -1.51172,-4.2421875 0,-1.3945313 0.26953,-3.0820313 1.53515,-4.2773438 0.0352,-0.035156 0.0586,-0.070312 0.0586,-0.1054687 0,-0.070312 -0.0469,-0.1054688 -0.10547,-0.1054688 -0.10547,0 -0.91406,0.6445313 -1.40625,1.6289063 -0.42188,0.8554687 -0.64453,1.78125 -0.64453,2.8476562 0,0.6445313 0.082,1.6640625 0.57422,2.73046875 0.52734,1.10156255 1.37109,1.74609375 1.47656,1.74609375 0.0586,0 0.10547,-0.035156 0.10547,-0.09375 z m 0,0"
         style="fill:#000000;fill-opacity:1;fill-rule:nonzero;stroke:none" />
      <path
         id="path661"
         d="m 152.67562,-5.41285 c 0.082,-0.3398437 0.11719,-0.4335937 0.94922,-0.4335937 0.24609,0 0.32812,0 0.32812,-0.1640625 0,-0.1054688 -0.11719,-0.1054688 -0.14062,-0.1054688 -0.21094,0 -0.44532,0.011719 -0.65625,0.011719 -0.21094,0 -0.4336,0.011719 -0.64453,0.011719 -0.21094,0 -0.42188,0 -0.6211,-0.011719 -0.16406,-0.011719 -0.43359,-0.011719 -0.58594,-0.011719 -0.0586,0 -0.1875,0 -0.1875,0.1523438 0,0.1171875 0.082,0.1171875 0.26954,0.1171875 0.0351,0 0.19921,0 0.33984,0.023437 0.15234,0.011719 0.22266,0.035156 0.22266,0.1289062 0,0.046875 -0.0117,0.082031 -0.0352,0.1875 l -1.21875,4.828125 c -0.0703,0.31640625 -0.0937,0.3984375 -0.76172,0.3984375 -0.17578,0 -0.26953,0 -0.26953,0.1640625 0,0.1171875 0.082,0.1171875 0.24609,0.1171875 h 4.23047 c 0.22266,0 0.22266,-0.01171875 0.29297,-0.19921875 0.0937,-0.22265625 0.73828,-1.92187495 0.73828,-1.99218745 0,-0.082031 -0.0586,-0.1171875 -0.1289,-0.1171875 -0.082,0 -0.0937,0.035156 -0.16407,0.2109375 -0.30468,0.796875 -0.70312,1.8164062 -2.27343,1.8164062 h -0.87891 c -0.12891,0 -0.15234,0 -0.1875,0 -0.082,-0.0117188 -0.11719,-0.0234375 -0.11719,-0.0820313 0,-0.0351563 0,-0.046875 0.0469,-0.2109375 z m 0,0"
         style="fill:#000000;fill-opacity:1;fill-rule:nonzero;stroke:none" />
      <path
         id="path662"
         d="m 157.41292,-6.6110922 c 0.0352,-0.09375 0.0586,-0.1289062 0.0586,-0.1992187 0,-0.1992188 -0.1875,-0.3398438 -0.36328,-0.3398438 -0.19922,0 -0.29297,0.140625 -0.32813,0.2578125 l -0.84375,2.6015625 c -0.0352,0.082031 -0.0352,0.09375 -0.0352,0.09375 0,0.09375 0.1875,0.1523438 0.2461,0.1523438 0.0586,0 0.082,-0.046875 0.10547,-0.09375 z m 0,0"
         style="fill:#000000;fill-opacity:1;fill-rule:nonzero;stroke:none" />
      <path
         id="path663"
         d="m 160.89339,-2.2487875 c 0,-0.7382812 -0.10547,-1.7226562 -0.57422,-2.71875 C 159.79183,-6.0691 158.9598,-6.72535 158.85433,-6.72535 c -0.0937,0 -0.11719,0.070312 -0.11719,0.1054688 0,0.035156 0.0234,0.070312 0.082,0.1289062 0.52735,0.46875 1.51172,1.6875 1.51172,4.2421875 0,1.27734375 -0.23437,3.0703125 -1.53515,4.2773438 -0.0234,0.023437 -0.0586,0.058594 -0.0586,0.1054687 0,0.023437 0.0234,0.09375 0.11719,0.09375 0.10547,0 0.91406,-0.6445312 1.39453,-1.6171875 0.43359,-0.85546875 0.64453,-1.78125 0.64453,-2.859375 z m 0,0"
         style="fill:#000000;fill-opacity:1;fill-rule:nonzero;stroke:none" />
    </g>
    <g
       id="g1"
       transform="matrix(1.2698585,0,0,1.2698585,-35.709735,309.18943)">
      <path
         id="path690-2"
         d="m 117.38362,-65.57237 c 0.0586,-0.222656 0.082,-0.316406 0.24609,-0.339844 0.082,-0.01172 0.375,-0.01172 0.5625,-0.01172 0.71485,0 1.69922,0 1.69922,0.902344 0,0.339844 -0.14062,1.007813 -0.64453,1.394531 -0.22266,0.140625 -0.66797,0.375 -1.39453,0.375 h -1.04297 z m 1.39453,2.460938 c 1.21875,-0.316407 1.96875,-0.996094 1.96875,-1.734375 0,-0.785157 -0.84375,-1.347657 -2.03906,-1.347657 h -2.60156 c -0.16407,0 -0.26954,0 -0.26954,0.152344 0,0.117188 0.082,0.117188 0.26954,0.117188 0.0352,0 0.19921,0 0.33984,0.02344 0.15234,0.01172 0.21094,0.03516 0.21094,0.128906 0,0.04687 0,0.08203 -0.0352,0.1875 l -1.20704,4.828125 c -0.082,0.316406 -0.0937,0.398437 -0.77343,0.398437 -0.16407,0 -0.26953,0 -0.26953,0.164063 0,0.09375 0.082,0.117187 0.14062,0.117187 0.14063,0 0.41016,-0.01172 0.5625,-0.02344 0.1875,0 0.21094,0 0.5625,0 0.28125,0 0.30469,0 0.5625,0 0.1875,0.01172 0.41016,0.02344 0.57422,0.02344 0.0703,0 0.1875,0 0.1875,-0.164062 0,-0.117188 -0.0937,-0.117188 -0.28125,-0.117188 -0.0352,0 -0.19922,0 -0.33984,-0.01172 -0.19922,-0.03516 -0.21094,-0.07031 -0.21094,-0.140625 0,-0.03516 0,-0.04687 0.0469,-0.210938 l 0.57422,-2.308594 h 1.10156 c 0.80859,0 1.01953,0.46875 1.01953,0.808594 0,0.07031 0,0.128906 -0.0586,0.328125 -0.21094,0.820313 -0.21094,0.902344 -0.21094,1.03125 0,0.808594 0.76172,0.984375 1.21875,0.984375 0.77344,0 1.10157,-0.902344 1.10157,-1.054687 0,-0.05859 -0.0586,-0.105469 -0.11719,-0.105469 -0.0937,0 -0.10547,0.04687 -0.14063,0.152344 -0.15234,0.46875 -0.49218,0.785156 -0.82031,0.785156 -0.33984,0 -0.36328,-0.269531 -0.36328,-0.527344 0,-0.234375 0.0703,-0.75 0.082,-0.808594 0.0117,-0.152343 0.0586,-0.503906 0.0586,-0.644531 0,-0.503906 -0.32812,-0.855469 -0.84375,-1.03125 z m 0,0"
         style="fill:#000000;fill-opacity:1;fill-rule:nonzero;stroke:none" />
      <path
         id="path691-2"
         d="m 122.88557,-66.685651 c 0.0352,-0.09375 0.0586,-0.128906 0.0586,-0.199219 0,-0.199219 -0.1875,-0.339844 -0.36328,-0.339844 -0.19922,0 -0.29297,0.140625 -0.32812,0.257813 l -0.84375,2.601562 c -0.0352,0.08203 -0.0352,0.09375 -0.0352,0.09375 0,0.09375 0.1875,0.152344 0.24609,0.152344 0.0586,0 0.082,-0.04687 0.10547,-0.09375 z m 0,0"
         style="fill:#000000;fill-opacity:1;fill-rule:nonzero;stroke:none" />
      <path
         id="path692-1"
         d="m 132.60627,-63.04112 c 0.11719,0 0.29297,0 0.29297,-0.1875 0,-0.199219 -0.19922,-0.199219 -0.32812,-0.199219 h -5.47266 c -0.14062,0 -0.32812,0 -0.32812,0.199219 0,0.1875 0.17578,0.1875 0.29297,0.1875 z m -0.0352,1.828125 c 0.12891,0 0.32813,0 0.32813,-0.199219 0,-0.1875 -0.17578,-0.1875 -0.29297,-0.1875 h -5.54297 c -0.11719,0 -0.29297,0 -0.29297,0.1875 0,0.199219 0.1875,0.199219 0.32813,0.199219 z m 0,0"
         style="fill:#000000;fill-opacity:1;fill-rule:nonzero;stroke:none" />
      <path
         id="path693-6"
         d="m 138.77034,-62.994245 h 0.8789 c 0.63282,0 0.76172,0.117188 0.76172,0.398438 0,0.02344 -0.0117,0.1875 -0.0586,0.398437 -0.0469,0.117188 -0.0469,0.117188 -0.0469,0.140625 0,0.03516 0.0352,0.117188 0.12891,0.117188 0.10547,0 0.10547,-0.04687 0.14062,-0.1875 l 0.50391,-1.933594 c 0,-0.03516 0.0234,-0.09375 0.0234,-0.140625 0,-0.04687 -0.0352,-0.117188 -0.12891,-0.117188 -0.0937,0 -0.11718,0.07031 -0.15234,0.222657 -0.17578,0.691406 -0.43359,0.832031 -1.16016,0.832031 h -0.82031 c 0.11719,-0.492188 0.57422,-2.332031 0.60938,-2.449219 0.0586,-0.175781 0.16406,-0.175781 0.43359,-0.175781 h 1.23047 c 1.13672,0 1.33594,0.292969 1.33594,0.984375 0,0.304687 -0.0469,0.539062 -0.0469,0.609375 0,0.08203 0.0469,0.140625 0.11719,0.140625 0.11719,0 0.11719,-0.05859 0.14063,-0.222656 l 0.1875,-1.664063 c 0,-0.128906 -0.0937,-0.128906 -0.25782,-0.128906 h -4.48828 c -0.1875,0 -0.26953,0 -0.26953,0.164062 0,0.117188 0.082,0.117188 0.26953,0.117188 0.0352,0 0.19922,0 0.33985,0.01172 0.19922,0.02344 0.21093,0.05859 0.21093,0.140625 0,0.03516 0,0.04687 -0.0469,0.210937 l -1.19532,4.769532 c -0.0703,0.316406 -0.0937,0.398437 -0.76172,0.398437 -0.17578,0 -0.26953,0 -0.26953,0.164063 0,0.05859 0.0234,0.117187 0.12891,0.117187 0.10547,0 0.52734,-0.01172 0.60937,-0.02344 0.0703,0 0.38672,0 0.58594,0 0.16406,0 0.42188,0 0.63281,0 0.22266,0 0.46875,0.02344 0.67969,0.02344 0.0703,0 0.1875,0 0.1875,-0.164062 0,-0.117188 -0.082,-0.117188 -0.26953,-0.117188 -0.0234,0 -0.25781,0 -0.46875,-0.01172 -0.28125,-0.03516 -0.29297,-0.07031 -0.29297,-0.175781 0,-0.01172 0,-0.07031 0.0352,-0.199219 z m 0,0"
         style="fill:#000000;fill-opacity:1;fill-rule:nonzero;stroke:none" />
      <path
         id="path694-8"
         d="m 143.84749,-62.985456 c 0.0117,-0.02344 0.0234,-0.05859 0.0234,-0.08203 0,-0.09375 -0.11719,-0.09375 -0.1875,-0.08203 l -0.67969,0.04687 c -0.0937,0.01172 -0.17578,0.01172 -0.17578,0.152344 0,0.09375 0.082,0.09375 0.17578,0.09375 0.17578,0 0.21094,0.02344 0.29297,0.04687 0,0.07031 0,0.08203 -0.0234,0.175781 l -0.84375,3.339844 c -0.0234,0.09375 -0.0234,0.128906 -0.0234,0.140625 0,0.152344 0.1289,0.199219 0.21093,0.199219 0.0586,0 0.17579,-0.02344 0.2461,-0.140625 0.0469,-0.07031 0.28125,-1.066407 0.32812,-1.253907 0.39844,0.02344 0.83203,0.117188 0.83203,0.480469 0,0.02344 0,0.05859 -0.0234,0.117188 -0.0117,0.09375 -0.0117,0.128906 -0.0117,0.175781 0,0.398437 0.32812,0.621094 0.66796,0.621094 0.58594,0 0.78516,-0.867188 0.78516,-0.914063 0,-0.01172 0,-0.09375 -0.10547,-0.09375 -0.082,0 -0.0937,0.03516 -0.1289,0.140625 -0.0586,0.222656 -0.22266,0.667969 -0.52735,0.667969 -0.23437,0 -0.23437,-0.257813 -0.23437,-0.316406 0,-0.09375 0,-0.105469 0.0352,-0.222657 0,-0.01172 0.0234,-0.128906 0.0234,-0.199218 0,-0.457032 -0.51563,-0.597657 -0.97266,-0.644532 0.14062,-0.09375 0.26953,-0.1875 0.50391,-0.398437 0.30468,-0.257813 0.60937,-0.515625 0.9375,-0.515625 0.082,0 0.15234,0.01172 0.21093,0.08203 -0.21093,0.03516 -0.30468,0.199219 -0.30468,0.328125 0,0.1875 0.15234,0.234375 0.23437,0.234375 0.14063,0 0.35156,-0.09375 0.35156,-0.398438 0,-0.257812 -0.1875,-0.445312 -0.48047,-0.445312 -0.375,0 -0.73828,0.292969 -1.00781,0.527344 -0.30469,0.269531 -0.49219,0.421875 -0.71484,0.503906 z m 0,0"
         style="fill:#000000;fill-opacity:1;fill-rule:nonzero;stroke:none" />
      <path
         id="path695-5"
         d="m 149.49885,-57.943464 c 0,-0.04687 -0.0234,-0.07031 -0.082,-0.128906 -1.16016,-1.066406 -1.51172,-2.671875 -1.51172,-4.242187 0,-1.394532 0.26953,-3.082032 1.53516,-4.277344 0.0352,-0.03516 0.0586,-0.07031 0.0586,-0.105469 0,-0.07031 -0.0469,-0.105469 -0.10547,-0.105469 -0.10547,0 -0.91406,0.644532 -1.40625,1.628907 -0.42187,0.855468 -0.64453,1.78125 -0.64453,2.847656 0,0.644531 0.082,1.664062 0.57422,2.730469 0.52734,1.101562 1.37109,1.746093 1.47656,1.746093 0.0586,0 0.10547,-0.03516 0.10547,-0.09375 z m 0,0"
         style="fill:#000000;fill-opacity:1;fill-rule:nonzero;stroke:none" />
      <path
         id="path696-7"
         d="m 153.43342,-65.57237 c 0.0586,-0.222656 0.082,-0.316406 0.24609,-0.339844 0.082,-0.01172 0.375,-0.01172 0.5625,-0.01172 0.71485,0 1.69922,0 1.69922,0.902344 0,0.339844 -0.14062,1.007813 -0.64453,1.394531 -0.22265,0.140625 -0.66797,0.375 -1.39453,0.375 h -1.04297 z m 1.39453,2.460938 c 1.21875,-0.316407 1.96875,-0.996094 1.96875,-1.734375 0,-0.785157 -0.84375,-1.347657 -2.03906,-1.347657 h -2.60156 c -0.16407,0 -0.26953,0 -0.26953,0.152344 0,0.117188 0.082,0.117188 0.26953,0.117188 0.0352,0 0.19922,0 0.33984,0.02344 0.15234,0.01172 0.21094,0.03516 0.21094,0.128906 0,0.04687 0,0.08203 -0.0352,0.1875 l -1.20703,4.828125 c -0.082,0.316406 -0.0937,0.398437 -0.77344,0.398437 -0.16406,0 -0.26953,0 -0.26953,0.164063 0,0.09375 0.082,0.117187 0.14063,0.117187 0.14062,0 0.41015,-0.01172 0.5625,-0.02344 0.1875,0 0.21093,0 0.5625,0 0.28125,0 0.30468,0 0.5625,0 0.1875,0.01172 0.41015,0.02344 0.57422,0.02344 0.0703,0 0.1875,0 0.1875,-0.164062 0,-0.117188 -0.0937,-0.117188 -0.28125,-0.117188 -0.0352,0 -0.19922,0 -0.33985,-0.01172 -0.19922,-0.03516 -0.21094,-0.07031 -0.21094,-0.140625 0,-0.03516 0,-0.04687 0.0469,-0.210938 l 0.57422,-2.308594 h 1.10156 c 0.80859,0 1.01953,0.46875 1.01953,0.808594 0,0.07031 0,0.128906 -0.0586,0.328125 -0.21094,0.820313 -0.21094,0.902344 -0.21094,1.03125 0,0.808594 0.76172,0.984375 1.21875,0.984375 0.77344,0 1.10156,-0.902344 1.10156,-1.054687 0,-0.05859 -0.0586,-0.105469 -0.11718,-0.105469 -0.0937,0 -0.10547,0.04687 -0.14063,0.152344 -0.15234,0.46875 -0.49219,0.785156 -0.82031,0.785156 -0.33985,0 -0.36328,-0.269531 -0.36328,-0.527344 0,-0.234375 0.0703,-0.75 0.082,-0.808594 0.0117,-0.152343 0.0586,-0.503906 0.0586,-0.644531 0,-0.503906 -0.32812,-0.855469 -0.84375,-1.03125 z m 0,0"
         style="fill:#000000;fill-opacity:1;fill-rule:nonzero;stroke:none" />
      <path
         id="path697-6"
         d="m 159.72932,-62.326276 c 0,-0.738281 -0.10547,-1.722656 -0.57422,-2.71875 -0.52734,-1.101563 -1.35937,-1.757813 -1.46484,-1.757813 -0.0937,0 -0.11719,0.07031 -0.11719,0.105469 0,0.03516 0.0234,0.07031 0.082,0.128906 0.52734,0.46875 1.51172,1.6875 1.51172,4.242188 0,1.277344 -0.23438,3.070312 -1.53516,4.277344 -0.0234,0.02344 -0.0586,0.05859 -0.0586,0.105468 0,0.02344 0.0234,0.09375 0.11719,0.09375 0.10547,0 0.91406,-0.644531 1.39453,-1.617187 0.43359,-0.855469 0.64453,-1.78125 0.64453,-2.859375 z m 0,0"
         style="fill:#000000;fill-opacity:1;fill-rule:nonzero;stroke:none" />
      <path
         id="path698-1"
         d="m 169.33576,-62.314557 c 0,-1.710938 -1.38281,-3.082032 -3.07031,-3.082032 -1.6875,0 -3.05859,1.394532 -3.05859,3.070313 0,1.710937 1.37109,3.070312 3.05859,3.070312 1.69922,0 3.07031,-1.382812 3.07031,-3.058593 z m -5.88281,-0.140625 c 0.082,-1.417969 1.17188,-2.601563 2.69531,-2.683594 v 2.683594 z m 2.94141,-2.683594 c 1.52344,0.08203 2.61328,1.265625 2.68359,2.683594 h -2.68359 z m -0.2461,5.636719 c -1.48828,-0.09375 -2.61328,-1.242188 -2.69531,-2.695313 h 2.69531 z m 2.92969,-2.695313 c -0.0703,1.464844 -1.20703,2.601563 -2.68359,2.695313 v -2.695313 z m 0,0"
         style="fill:#000000;fill-opacity:1;fill-rule:nonzero;stroke:none" />
      <path
         id="path699-8"
         d="m 175.31526,-65.490339 c 0.082,-0.339843 0.11718,-0.433593 0.94922,-0.433593 0.24609,0 0.32812,0 0.32812,-0.164063 0,-0.105469 -0.11719,-0.105469 -0.14062,-0.105469 -0.21094,0 -0.44532,0.01172 -0.65625,0.01172 -0.21094,0 -0.4336,0.01172 -0.64454,0.01172 -0.21093,0 -0.42187,0 -0.62109,-0.01172 -0.16406,-0.01172 -0.43359,-0.01172 -0.58594,-0.01172 -0.0586,0 -0.1875,0 -0.1875,0.152344 0,0.117188 0.082,0.117188 0.26953,0.117188 0.0352,0 0.19922,0 0.33985,0.02344 0.15234,0.01172 0.22265,0.03516 0.22265,0.128906 0,0.04687 -0.0117,0.08203 -0.0352,0.1875 l -1.21875,4.828125 c -0.0703,0.316406 -0.0937,0.398437 -0.76172,0.398437 -0.17578,0 -0.26953,0 -0.26953,0.164063 0,0.117187 0.082,0.117187 0.24609,0.117187 h 4.23047 c 0.22266,0 0.22266,-0.01172 0.29297,-0.199218 0.0937,-0.222657 0.73828,-1.921875 0.73828,-1.992188 0,-0.08203 -0.0586,-0.117187 -0.12891,-0.117187 -0.082,0 -0.0937,0.03516 -0.16406,0.210937 -0.30469,0.796875 -0.70312,1.816406 -2.27344,1.816406 h -0.8789 c -0.12891,0 -0.15235,0 -0.1875,0 -0.082,-0.01172 -0.11719,-0.02344 -0.11719,-0.08203 0,-0.03516 0,-0.04687 0.0469,-0.210937 z m 0,0"
         style="fill:#000000;fill-opacity:1;fill-rule:nonzero;stroke:none" />
    </g>
    <g
       id="g2"
       transform="matrix(0.25676547,0,0,0.25676547,62.620606,226.74192)">
      <path
         id="path682-5"
         d="m -77.154648,-2.8121603 c 0.40631,-1.6832799 0.58045,-2.1476367 4.70159,-2.1476367 1.21893,0 1.62524,0 1.62524,-0.8126217 0,-0.5223953 -0.58044,-0.5223953 -0.69653,-0.5223953 -1.0448,0 -2.20568,0.058037 -3.25048,0.058037 -1.0448,0 -2.14764,0.058037 -3.19244,0.058037 -1.04479,0 -2.08959,0 -3.07634,-0.058037 -0.81262,-0.058037 -2.14764,-0.058037 -2.90221,-0.058037 -0.29019,0 -0.92871,0 -0.92871,0.7545756 0,0.5804414 0.40631,0.5804414 1.33502,0.5804414 0.17414,0 0.98675,0 1.68328,0.1161108 0.75457,0.058037 1.10284,0.1741475 1.10284,0.6384855 0,0.2321464 -0.058,0.4063014 -0.17415,0.9287061 l -6.0366,23.9142316 c -0.34825,1.567196 -0.46435,1.973505 -3.77288,1.973505 -0.87066,0 -1.33501,0 -1.33501,0.812621 0,0.580442 0.4063,0.580442 1.21893,0.580442 h 20.95397 c 1.10284,0 1.10284,-0.05804 1.45111,-0.986751 0.46435,-1.102846 3.65678,-9.519256 3.65678,-9.867525 0,-0.406305 -0.29018,-0.580441 -0.63848,-0.580441 -0.40631,0 -0.46436,0.174147 -0.81262,1.044794 -1.50915,3.947009 -3.48266,8.99686 -11.26059,8.99686 h -4.35332 c -0.63849,0 -0.75457,0 -0.9287,0 -0.40631,-0.05804 -0.58045,-0.116111 -0.58045,-0.406306 0,-0.174147 0,-0.232146 0.23215,-1.044794 z m 0,0"
         style="fill:#000000;fill-opacity:1;fill-rule:nonzero;stroke:none;stroke-width:4.95312" />
      <path
         id="path683-4"
         d="m -53.690258,-8.7326713 c 0.17415,-0.4643531 0.29019,-0.6384855 0.29019,-0.9867541 0,-0.9867536 -0.92871,-1.6832836 -1.79938,-1.6832836 -0.98675,0 -1.4511,0.69653 -1.62523,1.276975 l -4.17919,12.8858218 c -0.17415,0.4063013 -0.17415,0.464353 -0.17415,0.464353 0,0.4643531 0.92871,0.7545775 1.21893,0.7545775 0.29019,0 0.40631,-0.2321464 0.5224,-0.4643568 z m 0,0"
         style="fill:#000000;fill-opacity:1;fill-rule:nonzero;stroke:none;stroke-width:4.95312" />
      <path
         id="path684-3"
         d="m -5.5425476,9.3190899 c 0.58044,0 1.45111,0 1.45111,-0.9287099 0,-0.9867541 -0.98676,-0.9867541 -1.62524,-0.9867541 H -32.823348 c -0.69653,0 -1.62524,0 -1.62524,0.9867541 0,0.9287099 0.87067,0.9287099 1.45111,0.9287099 z m -0.17415,9.0549031 c 0.63849,0 1.62524,0 1.62524,-0.986754 0,-0.928709 -0.87066,-0.928709 -1.45111,-0.928709 H -32.997498 c -0.58044,0 -1.4511,0 -1.4511,0.928709 0,0.986754 0.92871,0.986754 1.62524,0.986754 z m 0,0"
         style="fill:#000000;fill-opacity:1;fill-rule:nonzero;stroke:none;stroke-width:4.95312" />
      <path
         id="path685-1"
         d="m 18.429726,20.637715 c -0.406302,1.567199 -0.522398,1.973508 -3.830921,1.973508 -0.870665,0 -1.335018,0 -1.335018,0.812618 0,0.580445 0.464353,0.580445 1.21893,0.580445 h 16.194347 c 7.197488,0 12.479512,-5.223987 12.479512,-9.519257 0,-3.192435 -2.611986,-5.8624725 -7.023352,-6.3268256 5.049851,-0.986754 9.345121,-4.3533175 9.345121,-8.30032607 0,-3.48265553 -3.192431,-6.15269133 -8.474459,-6.15269133 H 21.854337 c -0.812618,0 -1.335019,0 -1.335019,0.7545756 0,0.5804414 0.406305,0.5804414 1.335019,0.5804414 0.174148,0 0.928706,0 1.683284,0.1161108 0.754577,0.058037 1.044794,0.1741475 1.044794,0.6384855 0,0.2321464 -0.05804,0.4063014 -0.174147,0.9287061 z M 25.336993,7.6358025 28.065071,-3.2184693 c 0.406305,-1.5671953 0.464353,-1.7413277 2.321769,-1.7413277 h 6.036605 c 4.585498,0 4.991807,3.5406959 4.991807,4.64354193 0,3.94700857 -4.121142,7.95205757 -9.170996,7.95205757 z M 23.189352,22.611223 c -0.580437,0 -0.696529,0 -0.870662,0 -0.464353,-0.05804 -0.580441,-0.116111 -0.580441,-0.406302 0,-0.174147 0,-0.232146 0.232146,-1.044802 L 25.046738,8.7966927 h 8.30033 c 2.786126,0 5.572248,1.1608864 5.572248,5.2239873 0,4.411361 -4.005053,8.59055 -9.345124,8.59055 z m 0,0"
         style="fill:#000000;fill-opacity:1;fill-rule:nonzero;stroke:none;stroke-width:4.95312" />
      <path
         id="path686-2"
         d="m 55.520002,9.5947976 c 0.05804,-0.1161109 0.116111,-0.290183 0.116111,-0.4063014 0,-0.4643568 -0.580445,-0.4643568 -0.92871,-0.4063051 l -3.366567,0.2321463 c -0.464357,0.058037 -0.870666,0.058037 -0.870666,0.7545738 0,0.4643568 0.406305,0.4643568 0.870666,0.4643568 0.870662,0 1.044798,0.116111 1.451107,0.232146 0,0.348258 0,0.406306 -0.116111,0.870662 l -4.179185,16.542616 c -0.116111,0.464353 -0.116111,0.638486 -0.116111,0.69653 0,0.754577 0.638486,0.986754 1.044794,0.986754 0.290183,0 0.870666,-0.116111 1.218931,-0.696534 0.232146,-0.348257 1.393059,-5.282027 1.62524,-6.210737 1.973504,0.116111 4.121137,0.580445 4.121137,2.379817 0,0.116111 0,0.290183 -0.116111,0.580445 -0.05804,0.464353 -0.05804,0.638486 -0.05804,0.870662 0,1.973501 1.62524,3.076347 3.308527,3.076347 2.902207,0 3.888968,-4.295278 3.888968,-4.527454 0,-0.05804 0,-0.464357 -0.522404,-0.464357 -0.406155,0 -0.464108,0.174148 -0.638508,0.696533 -0.290259,1.102839 -1.102809,3.308524 -2.611971,3.308524 -1.160887,0 -1.160887,-1.276975 -1.160887,-1.567196 0,-0.464353 0,-0.522397 0.174148,-1.102842 0,-0.05804 0.116111,-0.638486 0.116111,-0.98675 0,-2.263729 -2.55395,-2.960259 -4.817675,-3.192435 0.696534,-0.464357 1.335019,-0.92871 2.495902,-1.973504 1.509155,-1.276975 3.018302,-2.553946 4.643568,-2.553946 0.406154,0 0.754555,0.05804 1.044757,0.406301 -1.044757,0.174148 -1.509114,0.986754 -1.509114,1.62524 0,0.92871 0.754559,1.160886 1.16086,1.160886 0.696556,0 1.741317,-0.464353 1.741317,-1.973508 0,-1.276971 -0.928706,-2.205677 -2.379821,-2.205677 -1.857397,0 -3.656765,1.451107 -4.991788,2.61199 -1.509147,1.335019 -2.437857,2.089596 -3.540696,2.495901 z m 0,0"
         style="fill:#000000;fill-opacity:1;fill-rule:nonzero;stroke:none;stroke-width:4.95312" />
      <path
         id="path687-3"
         d="m 83.511815,34.568337 c 0,-0.232146 -0.115696,-0.348257 -0.406143,-0.638486 -5.746348,-5.282027 -7.487714,-13.234088 -7.487714,-21.012017 0,-6.907271 1.335061,-15.2656413 7.603825,-21.1861523 0.174487,-0.1741474 0.290183,-0.3482572 0.290183,-0.5223972 0,-0.3482572 -0.232146,-0.5224009 -0.522405,-0.5224009 -0.522404,0 -4.527459,3.1924386 -6.965324,8.0681552 -2.08957,4.2372255 -3.192427,8.8227233 -3.192427,14.1047512 0,3.192431 0.406154,8.242282 2.844174,13.524313 2.611971,5.456156 6.791173,8.648587 7.313577,8.648587 0.290183,0 0.522405,-0.174148 0.522405,-0.464353 z m 0,0"
         style="fill:#000000;fill-opacity:1;fill-rule:nonzero;stroke:none;stroke-width:4.95312" />
      <path
         id="path688-3"
         d="m 103.0002,-3.2184693 c 0.29019,-1.1028385 0.40615,-1.5671953 1.21896,-1.6832836 0.40614,-0.058037 1.8574,-0.058037 2.7861,-0.058037 3.54068,0 8.41643,0 8.41643,4.46940956 0,1.68328364 -0.69655,4.99180674 -3.19242,6.90726314 -1.10285,0.6965296 -3.30854,1.857416 -6.9073,1.857416 h -5.1659 z m 6.9073,12.1892944 c 6.0366,-1.5671992 9.75143,-4.9337627 9.75143,-8.59055058 0,-3.88896822 -4.1792,-6.67508852 -10.09972,-6.67508852 H 96.673385 c -0.812626,0 -1.33503,0 -1.33503,0.7545756 0,0.5804414 0.406181,0.5804414 1.33503,0.5804414 0.174487,0 0.986773,0 1.68325,0.1161108 0.754626,0.058037 1.044809,0.1741475 1.044809,0.6384855 0,0.2321464 0,0.4063014 -0.174487,0.9287061 l -5.97856,23.9142316 c -0.406144,1.567196 -0.464105,1.973505 -3.830943,1.973505 -0.812588,0 -1.334993,0 -1.334993,0.812621 0,0.464353 0.406143,0.580442 0.696552,0.580442 0.696515,0 2.031507,-0.05804 2.786134,-0.116111 0.928698,0 1.044734,0 2.786133,0 1.393029,0 1.509103,0 2.786096,0 0.928736,0.05804 2.031545,0.116111 2.84417,0.116111 0.348224,0 0.928734,0 0.928734,-0.812618 0,-0.580445 -0.4641,-0.580445 -1.393064,-0.580445 -0.174487,0 -0.986773,0 -1.683325,-0.05804 -0.986773,-0.174147 -1.04481,-0.348257 -1.04481,-0.69653 0,-0.174147 0,-0.232146 0.232147,-1.044798 l 2.84417,-11.4347204 h 5.456152 c 4.00509,0 5.0499,2.3217694 5.0499,4.0050524 0,0.348258 0,0.63849 -0.29018,1.62524 -1.04481,4.0631 -1.04481,4.469409 -1.04481,5.107895 0,4.005056 3.77287,4.875718 6.0366,4.875718 3.83094,0 5.45616,-4.469409 5.45616,-5.223979 0,-0.290221 -0.29019,-0.522401 -0.58045,-0.522401 -0.4641,0 -0.52236,0.232146 -0.69651,0.754577 -0.75455,2.321769 -2.43788,3.888965 -4.06309,3.888965 -1.68333,0 -1.79936,-1.335019 -1.79936,-2.611994 0,-1.160886 0.34822,-3.714832 0.40614,-4.005056 0.058,-0.75457 0.29019,-2.495902 0.29019,-3.192431 0,-2.495902 -1.62526,-4.2372333 -4.1792,-5.1078953 z m 0,0"
         style="fill:#000000;fill-opacity:1;fill-rule:nonzero;stroke:none;stroke-width:4.95312" />
      <path
         id="path689-4"
         d="m 134.19898,12.85979 c 0,-3.6567884 -0.5224,-8.5325031 -2.84417,-13.46626574 -2.61198,-5.45616356 -6.73311,-8.70664066 -7.25552,-8.70664066 -0.4641,0 -0.58044,0.3482572 -0.58044,0.5224009 0,0.1741475 0.1157,0.3482573 0.40615,0.6384855 2.61202,2.3217672 7.4877,8.35836836 7.4877,21.01202 0,6.326825 -1.16085,15.207593 -7.60374,21.186153 -0.11645,0.116111 -0.29018,0.290183 -0.29018,0.522394 0,0.116111 0.11569,0.464353 0.5804,0.464353 0.52241,0 4.5275,-3.192431 6.90726,-8.010102 2.14766,-4.237233 3.19247,-8.822727 3.19247,-14.162798 z m 0,0"
         style="fill:#000000;fill-opacity:1;fill-rule:nonzero;stroke:none;stroke-width:4.95312" />
    </g>
  </g>
</svg>
